<svg xmlns="http://www.w3.org/2000/svg" width="900" height="390" viewBox="0 0 900 390" role="img" aria-label="Achievements">
  <rect width="100%" height="100%" fill="#0d1117" rx="16"/>
  <rect x="18" y="18" width="864" height="354" rx="12" fill="#010409" stroke="#21262d"/>
  <circle cx="42" cy="40" r="6" fill="#f85149"/><circle cx="62" cy="40" r="6" fill="#d29922"/><circle cx="82" cy="40" r="6" fill="#3fb950"/>
  <text x="40" y="62" class="prompt">$ cat achievements.log</text>
  <style>
    .prompt { font-family: 'JetBrains Mono', monospace; font-size: 14px; fill: #7d8590; }
    .ach    { font-family: 'JetBrains Mono', monospace; font-size: 13px; fill: #e6edf3; }
  </style>
  <g opacity="0"><animate attributeName="opacity" begin="0.15s" dur="0.12s" from="0" to="1" fill="freeze"/><rect x="36" y="66" width="830" height="36" rx="8" fill="#0d1117" stroke="#21262d"/><text x="48" y="87" class="ach">🏆  Knight on LeetCode — Top 5%, max rating 1869</text></g><g opacity="0"><animate attributeName="opacity" begin="0.25s" dur="0.12s" from="0" to="1" fill="freeze"/><rect x="36" y="114" width="830" height="36" rx="8" fill="#0d1117" stroke="#21262d"/><text x="48" y="135" class="ach">🥇  Winner of CodeMania 6.0 and Codeverse 2k26 contests</text></g><g opacity="0"><animate attributeName="opacity" begin="0.35s" dur="0.12s" from="0" to="1" fill="freeze"/><rect x="36" y="162" width="830" height="36" rx="8" fill="#0d1117" stroke="#21262d"/><text x="48" y="183" class="ach">🌐  40+ merged PRs in GSSOC and Hacktoberfest</text></g><g opacity="0"><animate attributeName="opacity" begin="0.45s" dur="0.12s" from="0" to="1" fill="freeze"/><rect x="36" y="210" width="830" height="36" rx="8" fill="#0d1117" stroke="#21262d"/><text x="48" y="231" class="ach">📊  AIR 71 (Starters 215) and AIR 168 (Starters 214) on CodeChef</text></g><g opacity="0"><animate attributeName="opacity" begin="0.55s" dur="0.12s" from="0" to="1" fill="freeze"/><rect x="36" y="258" width="830" height="36" rx="8" fill="#0d1117" stroke="#21262d"/><text x="48" y="279" class="ach">⭐  3★ CodeChef (max 1604) · Specialist Codeforces (max 1414)</text></g><g opacity="0"><animate attributeName="opacity" begin="0.65s" dur="0.12s" from="0" to="1" fill="freeze"/><rect x="36" y="306" width="830" height="36" rx="8" fill="#0d1117" stroke="#21262d"/><text x="48" y="327" class="ach">🎓  Amazon ML Summer School · Flipkart GRID participant</text></g>
</svg>