<svg xmlns="http://www.w3.org/2000/svg" width="900" height="426" viewBox="0 0 900 426" role="img" aria-label="Achievements">
  <rect width="100%" height="100%" fill="#0d1117" rx="16"/>
  <rect x="18" y="18" width="864" height="390" rx="12" fill="#010409" stroke="#21262d"/>
  <circle cx="42" cy="40" r="6" fill="#f85149"/><circle cx="62" cy="40" r="6" fill="#d29922"/><circle cx="82" cy="40" r="6" fill="#3fb950"/>
  <text x="40" y="62" class="prompt">$ cat achievements.log</text>
  <style>
    .prompt { font-family: 'JetBrains Mono', monospace; font-size: 14px; fill: #7d8590; }
    .ach    { font-family: 'JetBrains Mono', monospace; font-size: 13px; fill: #e6edf3; }
  </style>
  <g opacity="0"><animate attributeName="opacity" begin="0.15s" dur="0.12s" from="0" to="1" fill="freeze"/><rect x="36" y="66" width="830" height="36" rx="8" fill="#0d1117" stroke="#21262d"/><text x="48" y="87" class="ach">🏆  Knight on LeetCode — Top 5%, Max Rating 1869</text></g><g opacity="0"><animate attributeName="opacity" begin="0.25s" dur="0.12s" from="0" to="1" fill="freeze"/><rect x="36" y="114" width="830" height="36" rx="8" fill="#0d1117" stroke="#21262d"/><text x="48" y="135" class="ach">🥇  Winner of CodeMania 6.0 and Codeverse 2k26 Contests</text></g><g opacity="0"><animate attributeName="opacity" begin="0.35s" dur="0.12s" from="0" to="1" fill="freeze"/><rect x="36" y="162" width="830" height="48" rx="8" fill="#0d1117" stroke="#21262d"/><text x="48" y="180" class="ach">🌐  40+ Merged Pull Requests as Open Source Contributor in GSSOC &amp;</text><text x="70" y="200" class="ach">Hacktoberfest</text></g><g opacity="0"><animate attributeName="opacity" begin="0.45s" dur="0.12s" from="0" to="1" fill="freeze"/><rect x="36" y="222" width="830" height="48" rx="8" fill="#0d1117" stroke="#21262d"/><text x="48" y="240" class="ach">📊  Secured AIR 71 (Starters 215) and AIR 168 (Starters 214) among 30,000</text><text x="70" y="260" class="ach">participants on CodeChef</text></g><g opacity="0"><animate attributeName="opacity" begin="0.55s" dur="0.12s" from="0" to="1" fill="freeze"/><rect x="36" y="282" width="830" height="48" rx="8" fill="#0d1117" stroke="#21262d"/><text x="48" y="300" class="ach">⭐  3 Stars CodeChef (Max Rating 1604) · Specialist Rank on Codeforces (Max</text><text x="70" y="320" class="ach">Rating 1414)</text></g><g opacity="0"><animate attributeName="opacity" begin="0.65s" dur="0.12s" from="0" to="1" fill="freeze"/><rect x="36" y="342" width="830" height="36" rx="8" fill="#0d1117" stroke="#21262d"/><text x="48" y="363" class="ach">🎓  Amazon ML Summer School Participant · Flipkart GRID Participant</text></g>
</svg>